<svg width="256" height="256" viewBox="0 0 256 256" fill="none" xmlns="http://www.w3.org/2000/svg">
<path d="M224.5 136.5L152.5 208.5C150.236 210.735 147.182 211.989 144 211.989C140.818 211.989 137.764 210.735 135.5 208.5C134.381 207.385 133.494 206.061 132.888 204.602C132.282 203.144 131.971 201.58 131.971 200C131.971 198.421 132.282 196.857 132.888 195.398C133.494 193.94 134.381 192.615 135.5 191.5L187 140H40C36.8174 140 33.7652 138.736 31.5147 136.486C29.2643 134.235 28 131.183 28 128C28 124.818 29.2643 121.765 31.5147 119.515C33.7652 117.265 36.8174 116 40 116H187L135.5 64.5003C133.246 62.246 131.979 59.1884 131.979 56.0003C131.979 54.4217 132.29 52.8586 132.894 51.4001C133.498 49.9417 134.384 48.6165 135.5 47.5003C136.616 46.3841 137.941 45.4986 139.4 44.8945C140.858 44.2904 142.421 43.9795 144 43.9795C147.188 43.9795 150.246 45.246 152.5 47.5003L224.5 119.5C225.619 120.615 226.506 121.94 227.112 123.398C227.718 124.857 228.029 126.421 228.029 128C228.029 129.58 227.718 131.144 227.112 132.602C226.506 134.061 225.619 135.385 224.5 136.5V136.5Z" fill="#6D8B74"/>
</svg>
